TITLE ""
FILE "1Q_t_1639-1648.mp3" MP3
  TRACK 01 AUDIO
    TITLE "1Q_t_1639-1648_01"
    INDEX 01 00:00:00
  TRACK 02 AUDIO
    TITLE "1Q_t_1639-1648_02"
    INDEX 01 00:00:08
  TRACK 03 AUDIO
    TITLE "1Q_t_1639-1648_03"
    INDEX 01 00:01:18
  TRACK 04 AUDIO
    TITLE "1Q_t_1639-1648_04"
    INDEX 01 00:01:63
  TRACK 05 AUDIO
    TITLE "1Q_t_1639-1648_05"
    INDEX 01 00:02:74
  TRACK 06 AUDIO
    TITLE "1Q_t_1639-1648_06"
    INDEX 01 00:03:09
  TRACK 07 AUDIO
    TITLE "1Q_t_1639-1648_07"
    INDEX 01 00:04:71
  TRACK 08 AUDIO
    TITLE "1Q_t_1639-1648_08"
    INDEX 01 00:05:04
  TRACK 09 AUDIO
    TITLE "1Q_t_1639-1648_09"
    INDEX 01 00:09:11
  TRACK 10 AUDIO
    TITLE "1Q_t_1639-1648_10"
    INDEX 01 00:09:58
  TRACK 11 AUDIO
    TITLE "1Q_t_1639-1648_11"
    INDEX 01 00:11:12
  TRACK 12 AUDIO
    TITLE "1Q_t_1639-1648_12"
    INDEX 01 00:11:20
  TRACK 13 AUDIO
    TITLE "1Q_t_1639-1648_13"
    INDEX 01 00:13:07
  TRACK 14 AUDIO
    TITLE "1Q_t_1639-1648_14"
    INDEX 01 00:13:17
  TRACK 15 AUDIO
    TITLE "1Q_t_1639-1648_15"
    INDEX 01 00:17:19
  TRACK 16 AUDIO
    TITLE "1Q_t_1639-1648_16"
    INDEX 01 00:17:66
  TRACK 17 AUDIO
    TITLE "1Q_t_1639-1648_17"
    INDEX 01 00:18:73
  TRACK 18 AUDIO
    TITLE "1Q_t_1639-1648_18"
    INDEX 01 00:19:10
  TRACK 19 AUDIO
    TITLE "1Q_t_1639-1648_19"
    INDEX 01 00:20:56
  TRACK 20 AUDIO
    TITLE "1Q_t_1639-1648_20"
    INDEX 01 00:20:66
  TRACK 21 AUDIO
    TITLE "1Q_t_1639-1648_21"
    INDEX 01 00:26:41
  TRACK 22 AUDIO
    TITLE "1Q_t_1639-1648_22"
    INDEX 01 00:27:15
  TRACK 23 AUDIO
    TITLE "1Q_t_1639-1648_23"
    INDEX 01 00:28:34
  TRACK 24 AUDIO
    TITLE "1Q_t_1639-1648_24"
    INDEX 01 00:28:48
  TRACK 25 AUDIO
    TITLE "1Q_t_1639-1648_25"
    INDEX 01 00:31:38
  TRACK 26 AUDIO
    TITLE "1Q_t_1639-1648_26"
    INDEX 01 00:31:48
  TRACK 27 AUDIO
    TITLE "1Q_t_1639-1648_27"
    INDEX 01 00:36:55
  TRACK 28 AUDIO
    TITLE "1Q_t_1639-1648_28"
    INDEX 01 00:37:25
  TRACK 29 AUDIO
    TITLE "1Q_t_1639-1648_29"
    INDEX 01 00:38:25
  TRACK 30 AUDIO
    TITLE "1Q_t_1639-1648_30"
    INDEX 01 00:38:34
  TRACK 31 AUDIO
    TITLE "1Q_t_1639-1648_31"
    INDEX 01 00:39:57
  TRACK 32 AUDIO
    TITLE "1Q_t_1639-1648_32"
    INDEX 01 00:39:65
  TRACK 33 AUDIO
    TITLE "1Q_t_1639-1648_33"
    INDEX 01 00:44:12
  TRACK 34 AUDIO
    TITLE "1Q_t_1639-1648_34"
    INDEX 01 00:44:57
  TRACK 35 AUDIO
    TITLE "1Q_t_1639-1648_35"
    INDEX 01 00:45:74
  TRACK 36 AUDIO
    TITLE "1Q_t_1639-1648_36"
    INDEX 01 00:46:08
  TRACK 37 AUDIO
    TITLE "1Q_t_1639-1648_37"
    INDEX 01 00:47:27
  TRACK 38 AUDIO
    TITLE "1Q_t_1639-1648_38"
    INDEX 01 00:47:35
  TRACK 39 AUDIO
    TITLE "1Q_t_1639-1648_39"
    INDEX 01 00:52:54
  TRACK 40 AUDIO
    TITLE "1Q_t_1639-1648_40"
    INDEX 01 00:53:28
  TRACK 41 AUDIO
    TITLE "1Q_t_1639-1648_41"
    INDEX 01 00:54:35
  TRACK 42 AUDIO
    TITLE "1Q_t_1639-1648_42"
    INDEX 01 00:54:45
  TRACK 43 AUDIO
    TITLE "1Q_t_1639-1648_43"
    INDEX 01 00:55:60
  TRACK 44 AUDIO
    TITLE "1Q_t_1639-1648_44"
    INDEX 01 00:55:70
  TRACK 45 AUDIO
    TITLE "1Q_t_1639-1648_45"
    INDEX 01 01:00:69
  TRACK 46 AUDIO
    TITLE "1Q_t_1639-1648_46"
    INDEX 01 01:01:41
  TRACK 47 AUDIO
    TITLE "1Q_t_1639-1648_47"
    INDEX 01 01:02:54
  TRACK 48 AUDIO
    TITLE "1Q_t_1639-1648_48"
    INDEX 01 01:02:64
  TRACK 49 AUDIO
    TITLE "1Q_t_1639-1648_49"
    INDEX 01 01:05:18
  TRACK 50 AUDIO
    TITLE "1Q_t_1639-1648_50"
    INDEX 01 01:05:25
  TRACK 51 AUDIO
    TITLE "1Q_t_1639-1648_51"
    INDEX 01 01:11:03
  TRACK 52 AUDIO
    TITLE "1Q_t_1639-1648_52"
    INDEX 01 01:11:52
  TRACK 53 AUDIO
    TITLE "1Q_t_1639-1648_53"
    INDEX 01 01:12:45
  TRACK 54 AUDIO
    TITLE "1Q_t_1639-1648_54"
    INDEX 01 01:12:53
  TRACK 55 AUDIO
    TITLE "1Q_t_1639-1648_55"
    INDEX 01 01:14:56
  TRACK 56 AUDIO
    TITLE "1Q_t_1639-1648_56"
    INDEX 01 01:15:00
  TRACK 57 AUDIO
    TITLE "1Q_t_1639-1648_57"
    INDEX 01 01:19:18
  TRACK 58 AUDIO
    TITLE "1Q_t_1639-1648_58"
    INDEX 01 01:19:63
  TRACK 59 AUDIO
    TITLE "1Q_t_1639-1648_59"
    INDEX 01 01:21:15
  TRACK 60 AUDIO
    TITLE "1Q_t_1639-1648_60"
    INDEX 01 01:21:22
  TRACK 61 AUDIO
    TITLE "1Q_t_1639-1648_61"
    INDEX 01 01:22:16
  TRACK 62 AUDIO
    TITLE "1Q_t_1639-1648_62"
    INDEX 01 01:22:26
  TRACK 63 AUDIO
    TITLE "1Q_t_1639-1648_63"
    INDEX 01 01:28:11
